<?xml version="1.0" encoding="utf-8"?>
<!-- Generator: Adobe Illustrator 18.1.1, SVG Export Plug-In . SVG Version: 6.00 Build 0)  -->
<svg version="1.1" id="Layer_1" xmlns="http://www.w3.org/2000/svg" xmlns:xlink="http://www.w3.org/1999/xlink" x="0px" y="0px"
	 viewBox="0 0 50 50" enable-background="new 0 0 50 50" xml:space="preserve">
<g>
	<polygon fill="#FFFFFF" stroke="#000000" stroke-width="0.25" stroke-miterlimit="10" points="50,0 42.4,0 50,7.6 	"/>
	<polygon fill="#FFFFFF" stroke="#000000" stroke-width="0.25" stroke-miterlimit="10" points="0,0 0,7.6 7.6,0 	"/>
	<polygon fill="#FFFFFF" stroke="#000000" stroke-width="0.25" stroke-miterlimit="10" points="0,50 7.6,50 0,42.4 	"/>
	<polygon fill="#FFFFFF" stroke="#000000" stroke-width="0.25" stroke-miterlimit="10" points="50,42.4 42.4,50 50,50 	"/>
	<polygon fill="#FFFFFF" stroke="#000000" stroke-width="0.25" stroke-miterlimit="10" points="14.6,0 7.6,0 0,7.6 0,14.6 	"/>
	<polygon fill="#FFFFFF" stroke="#000000" stroke-width="0.25" stroke-miterlimit="10" points="0,35.4 0,42.4 7.6,50 14.6,50 	"/>
	<polygon fill="#FFFFFF" stroke="#000000" stroke-width="0.25" stroke-miterlimit="10" points="50,35.4 35.4,50 42.4,50 50,42.4 	
		"/>
	<polygon fill="#FFFFFF" stroke="#000000" stroke-width="0.25" stroke-miterlimit="10" points="50,14.6 50,7.6 42.4,0 35.4,0 	"/>
	<polygon fill="#FFFFFF" stroke="#000000" stroke-width="0.25" stroke-miterlimit="10" points="21.7,0 14.6,0 0,14.6 0,21.7 	"/>
	<polygon fill="#FFFFFF" stroke="#000000" stroke-width="0.25" stroke-miterlimit="10" points="28.3,50 35.4,50 50,35.4 50,28.3 	
		"/>
	<polygon fill="#FFFFFF" stroke="#000000" stroke-width="0.25" stroke-miterlimit="10" points="50,21.7 50,14.6 35.4,0 28.3,0 	"/>
	<polygon fill="#FFFFFF" stroke="#000000" stroke-width="0.25" stroke-miterlimit="10" points="0,28.3 0,35.4 14.6,50 21.7,50 	"/>
	<path fill="#FFFFFF" stroke="#000000" stroke-width="0.25" stroke-miterlimit="10" d="M21.7,0L0,21.7v6.6L21.7,50h6.6L50,28.3v-6.6
		L28.3,0H21.7z M25,46.2L3.8,25L25,3.8L46.2,25L25,46.2z"/>
	<path fill="#FFFFFF" stroke="#000000" stroke-width="0.25" stroke-miterlimit="10" d="M3.8,25L25,46.2L46.2,25L25,3.8L3.8,25z
		 M25,39.1L10.9,25L25,10.9L39.1,25L25,39.1z"/>
	<path fill="#FFFFFF" stroke="#000000" stroke-width="0.25" stroke-miterlimit="10" d="M10.9,25L25,39.1L39.1,25L25,10.9L10.9,25z
		 M25,32.1L17.9,25l7.1-7.1l7.1,7.1L25,32.1z"/>
	
		<rect x="20" y="20" transform="matrix(-0.7071 -0.7071 0.7071 -0.7071 25 60.3553)" fill="#FFFFFF" stroke="#000000" stroke-width="0.25" stroke-miterlimit="10" width="10" height="10"/>
</g>
</svg>
