<?xml version="1.0" encoding="utf-8"?>
<!-- Generator: Adobe Illustrator 19.1.0, SVG Export Plug-In . SVG Version: 6.00 Build 0)  -->
<svg version="1.1" id="Layer_1" xmlns="http://www.w3.org/2000/svg" xmlns:xlink="http://www.w3.org/1999/xlink" x="0px" y="0px"
	 viewBox="0 0 50 50" style="enable-background:new 0 0 50 50;" xml:space="preserve">
<style type="text/css">
	.st0{fill:none;}
</style>
<polygon class="st0" points="10,10 10,14.9 14.9,10 "/>
<polygon class="st0" points="40,40 40,35.1 35.1,40 "/>
<polygon class="st0" points="10,40 14.9,40 10,35.1 "/>
<polygon class="st0" points="40,10 35.1,10 40,14.9 "/>
<polygon points="40,10 40,14.9 50,24.9 50,0 25.1,0 35.1,10 "/>
<polygon points="50,25.1 40,35.1 40,40 35.1,40 25.1,50 50,50 "/>
<polygon points="10,40 10,35.1 0,25.1 0,50 24.9,50 14.9,40 "/>
<polygon points="10,10 14.9,10 24.9,0 0,0 0,24.9 10,14.9 "/>
<polygon points="10,35.1 14.9,40 25,40 10,25 "/>
<polygon points="-0.1,25 0,25.1 0,24.9 "/>
<polygon points="25,-0.1 24.9,0 25.1,0 "/>
<polygon points="50.1,25 50,24.9 50,25.1 "/>
<polygon points="25,50.1 25.1,50 24.9,50 "/>
<polygon points="14.9,10 10,14.9 10,25 25,10 "/>
<polygon points="25,40 35.1,40 40,35.1 40,25 "/>
<polygon points="40,14.9 35.1,10 25,10 40,25 "/>
<polygon points="10,25 10,14.9 0,24.9 0,25.1 10,35.1 "/>
<polygon points="25,40 14.9,40 24.9,50 25.1,50 35.1,40 "/>
<polygon points="40,25 40,35.1 50,25.1 50,24.9 40,14.9 "/>
<polygon points="25,10 35.1,10 25.1,0 24.9,0 14.9,10 "/>
<rect x="16.7" y="16.7" transform="matrix(0.7071 -0.7071 0.7071 0.7071 -10.3553 25)" width="16.7" height="16.7"/>
</svg>
