<?xml version="1.0" encoding="utf-8"?>
<!-- Generator: Adobe Illustrator 18.1.1, SVG Export Plug-In . SVG Version: 6.00 Build 0)  -->
<svg version="1.1" id="Layer_1" xmlns="http://www.w3.org/2000/svg" xmlns:xlink="http://www.w3.org/1999/xlink" x="0px" y="0px"
	 viewBox="0 0 50 50" enable-background="new 0 0 50 50" xml:space="preserve">
<polygon fill="#FFFFFF" stroke="#000000" stroke-width="0.25" stroke-miterlimit="10" points="30,0 30,8.8 41.2,20 50,20 50,0 "/>
<polygon fill="#FFFFFF" stroke="#000000" stroke-width="0.25" stroke-miterlimit="10" points="20,8.8 20,0 0,0 0,20 8.8,20 "/>
<polygon fill="#FFFFFF" stroke="#000000" stroke-width="0.25" stroke-miterlimit="10" points="30,41.2 30,50 50,50 50,30 41.2,30 
	"/>
<polygon fill="#FFFFFF" stroke="#000000" stroke-width="0.25" stroke-miterlimit="10" points="8.8,30 0,30 0,50 20,50 20,41.2 "/>
<polygon fill="#FFFFFF" stroke="#000000" stroke-width="0.25" stroke-miterlimit="10" points="46.2,25 41.2,30 50,30 50,20 41.2,20 
	"/>
<polygon fill="#FFFFFF" stroke="#000000" stroke-width="0.25" stroke-miterlimit="10" points="3.8,25 8.8,20 0,20 0,30 8.8,30 "/>
<polygon fill="#FFFFFF" stroke="#000000" stroke-width="0.25" stroke-miterlimit="10" points="25,46.2 20,41.2 20,50 30,50 30,41.2 
	"/>
<polygon fill="#FFFFFF" stroke="#000000" stroke-width="0.25" stroke-miterlimit="10" points="25,3.8 30,8.8 30,0 20,0 20,8.8 "/>
<polygon fill="#FFFFFF" stroke="#000000" stroke-width="0.25" stroke-miterlimit="10" points="34.1,20 41.2,20 30,8.8 30,15.9 "/>
<polygon fill="#FFFFFF" stroke="#000000" stroke-width="0.25" stroke-miterlimit="10" points="20,15.9 20,8.8 8.8,20 15.9,20 "/>
<polygon fill="#FFFFFF" stroke="#000000" stroke-width="0.25" stroke-miterlimit="10" points="30,34.1 30,41.2 41.2,30 34.1,30 "/>
<polygon fill="#FFFFFF" stroke="#000000" stroke-width="0.25" stroke-miterlimit="10" points="15.9,30 8.8,30 20,41.2 20,34.1 "/>
<polygon fill="#FFFFFF" stroke="#000000" stroke-width="0.25" stroke-miterlimit="10" points="10.9,25 15.9,20 8.8,20 3.8,25 
	8.8,30 15.9,30 "/>
<polygon fill="#FFFFFF" stroke="#000000" stroke-width="0.25" stroke-miterlimit="10" points="39.1,25 34.1,30 41.2,30 46.2,25 
	41.2,20 34.1,20 "/>
<polygon fill="#FFFFFF" stroke="#000000" stroke-width="0.25" stroke-miterlimit="10" points="20,8.8 20,15.9 25,10.9 30,15.9 
	30,8.8 25,3.8 "/>
<polygon fill="#FFFFFF" stroke="#000000" stroke-width="0.25" stroke-miterlimit="10" points="25,39.1 20,34.1 20,41.2 25,46.2 
	30,41.2 30,34.1 "/>
<polygon fill="#FFFFFF" stroke="#000000" stroke-width="0.25" stroke-miterlimit="10" points="34.1,20 30,15.9 30,20 "/>
<polygon fill="#FFFFFF" stroke="#000000" stroke-width="0.25" stroke-miterlimit="10" points="20,20 20,15.9 15.9,20 "/>
<polygon fill="#FFFFFF" stroke="#000000" stroke-width="0.25" stroke-miterlimit="10" points="30,34.1 34.1,30 30,30 "/>
<polygon fill="#FFFFFF" stroke="#000000" stroke-width="0.25" stroke-miterlimit="10" points="15.9,30 20,34.1 20,30 "/>
<polygon fill="#FFFFFF" stroke="#000000" stroke-width="0.25" stroke-miterlimit="10" points="20,27.1 17.9,25 20,22.9 20,20 
	15.9,20 10.9,25 15.9,30 20,30 "/>
<polygon fill="#FFFFFF" stroke="#000000" stroke-width="0.25" stroke-miterlimit="10" points="30,22.9 32.1,25 30,27.1 30,30 
	34.1,30 39.1,25 34.1,20 30,20 "/>
<polygon fill="#FFFFFF" stroke="#000000" stroke-width="0.25" stroke-miterlimit="10" points="22.9,20 25,17.9 27.1,20 30,20 
	30,15.9 25,10.9 20,15.9 20,20 "/>
<polygon fill="#FFFFFF" stroke="#000000" stroke-width="0.25" stroke-miterlimit="10" points="27.1,30 25,32.1 22.9,30 20,30 
	20,34.1 25,39.1 30,34.1 30,30 "/>
<polygon fill="#FFFFFF" stroke="#000000" stroke-width="0.25" stroke-miterlimit="10" points="30,30 30,27.1 27.1,30 "/>
<polygon fill="#FFFFFF" stroke="#000000" stroke-width="0.25" stroke-miterlimit="10" points="20,30 22.9,30 20,27.1 "/>
<polygon fill="#FFFFFF" stroke="#000000" stroke-width="0.25" stroke-miterlimit="10" points="30,20 27.1,20 30,22.9 "/>
<polygon fill="#FFFFFF" stroke="#000000" stroke-width="0.25" stroke-miterlimit="10" points="22.9,20 20,20 20,22.9 "/>
<polygon fill="#FFFFFF" stroke="#000000" stroke-width="0.25" stroke-miterlimit="10" points="32.1,25 30,22.9 30,27.1 "/>
<polygon fill="#FFFFFF" stroke="#000000" stroke-width="0.25" stroke-miterlimit="10" points="17.9,25 20,27.1 20,22.9 "/>
<polygon fill="#FFFFFF" stroke="#000000" stroke-width="0.25" stroke-miterlimit="10" points="25,17.9 22.9,20 27.1,20 "/>
<polygon fill="#FFFFFF" stroke="#000000" stroke-width="0.25" stroke-miterlimit="10" points="25,32.1 27.1,30 22.9,30 "/>
<polygon fill="#FFFFFF" stroke="#000000" stroke-width="0.25" stroke-miterlimit="10" points="20,27.1 22.9,30 27.1,30 30,27.1 
	30,22.9 27.1,20 22.9,20 20,22.9 "/>
</svg>
