<?xml version="1.0" encoding="utf-8"?>
<!-- Generator: Adobe Illustrator 18.1.1, SVG Export Plug-In . SVG Version: 6.00 Build 0)  -->
<svg version="1.1" id="Layer_1" xmlns="http://www.w3.org/2000/svg" xmlns:xlink="http://www.w3.org/1999/xlink" x="0px" y="0px"
	 viewBox="0 0 50 50" enable-background="new 0 0 50 50" xml:space="preserve">
<polygon fill="none" points="21.7,17.4 17.4,17.4 17.4,21.7 17.4,28.3 17.4,32.6 21.7,32.6 28.3,32.6 32.6,32.6 32.6,28.3 
	32.6,21.7 32.6,17.4 28.3,17.4 "/>
<polygon fill="#FFFFFF" stroke="#000000" stroke-width="0.25" stroke-miterlimit="10" points="25,7.1 32.6,14.6 32.6,7.6 25,0 
	17.4,7.6 17.4,14.6 "/>
<polygon fill="#FFFFFF" stroke="#000000" stroke-width="0.25" stroke-miterlimit="10" points="21.7,17.4 25,14.1 28.3,17.4 
	32.6,17.4 32.6,14.6 25,7.1 17.4,14.6 17.4,17.4 "/>
<polygon fill="#FFFFFF" stroke="#000000" stroke-width="0.25" stroke-miterlimit="10" points="25,14.1 21.7,17.4 28.3,17.4 "/>
<polygon fill="#FFFFFF" stroke="#000000" stroke-width="0.25" stroke-miterlimit="10" points="25,42.9 17.4,35.4 17.4,42.4 25,50 
	32.6,42.4 32.6,35.4 "/>
<polygon fill="#FFFFFF" stroke="#000000" stroke-width="0.25" stroke-miterlimit="10" points="28.3,32.6 25,35.9 21.7,32.6 
	17.4,32.6 17.4,35.4 25,42.9 32.6,35.4 32.6,32.6 "/>
<polygon fill="#FFFFFF" stroke="#000000" stroke-width="0.25" stroke-miterlimit="10" points="25,35.9 28.3,32.6 21.7,32.6 "/>
<polygon fill="#FFFFFF" stroke="#000000" stroke-width="0.25" stroke-miterlimit="10" points="7.1,25 14.6,17.4 7.6,17.4 0,25 
	7.6,32.6 14.6,32.6 "/>
<polygon fill="#FFFFFF" stroke="#000000" stroke-width="0.25" stroke-miterlimit="10" points="17.4,14.6 17.4,7.6 7.6,17.4 
	14.6,17.4 "/>
<polygon fill="#FFFFFF" stroke="#000000" stroke-width="0.25" stroke-miterlimit="10" points="14.6,32.6 7.6,32.6 17.4,42.4 
	17.4,35.4 "/>
<polygon fill="#FFFFFF" stroke="#000000" stroke-width="0.25" stroke-miterlimit="10" points="17.4,28.3 14.1,25 17.4,21.7 
	17.4,17.4 14.6,17.4 7.1,25 14.6,32.6 17.4,32.6 "/>
<polygon fill="#FFFFFF" stroke="#000000" stroke-width="0.25" stroke-miterlimit="10" points="17.4,14.6 14.6,17.4 17.4,17.4 "/>
<polygon fill="#FFFFFF" stroke="#000000" stroke-width="0.25" stroke-miterlimit="10" points="14.6,32.6 17.4,35.4 17.4,32.6 "/>
<polygon fill="#FFFFFF" stroke="#000000" stroke-width="0.25" stroke-miterlimit="10" points="14.1,25 17.4,28.3 17.4,21.7 "/>
<polygon fill="#FFFFFF" stroke="#000000" stroke-width="0.25" stroke-miterlimit="10" points="42.4,17.4 35.4,17.4 42.9,25 
	35.4,32.6 42.4,32.6 50,25 "/>
<polygon fill="#FFFFFF" stroke="#000000" stroke-width="0.25" stroke-miterlimit="10" points="35.4,17.4 42.4,17.4 32.6,7.6 
	32.6,14.6 "/>
<polygon fill="#FFFFFF" stroke="#000000" stroke-width="0.25" stroke-miterlimit="10" points="32.6,35.4 32.6,42.4 42.4,32.6 
	35.4,32.6 "/>
<polygon fill="#FFFFFF" stroke="#000000" stroke-width="0.25" stroke-miterlimit="10" points="32.6,21.7 35.9,25 32.6,28.3 
	32.6,32.6 35.4,32.6 42.9,25 35.4,17.4 32.6,17.4 "/>
<polygon fill="#FFFFFF" stroke="#000000" stroke-width="0.25" stroke-miterlimit="10" points="32.6,17.4 35.4,17.4 32.6,14.6 "/>
<polygon fill="#FFFFFF" stroke="#000000" stroke-width="0.25" stroke-miterlimit="10" points="32.6,35.4 35.4,32.6 32.6,32.6 "/>
<polygon fill="#FFFFFF" stroke="#000000" stroke-width="0.25" stroke-miterlimit="10" points="35.9,25 32.6,21.7 32.6,28.3 "/>
</svg>
