<?xml version="1.0" encoding="utf-8"?>
<!-- Generator: Adobe Illustrator 18.1.1, SVG Export Plug-In . SVG Version: 6.00 Build 0)  -->
<svg version="1.1" id="Layer_1" xmlns="http://www.w3.org/2000/svg" xmlns:xlink="http://www.w3.org/1999/xlink" x="0px" y="0px"
	 viewBox="0 0 50 50" enable-background="new 0 0 50 50" xml:space="preserve">
<polygon fill="#FFFFFF" stroke="#000000" stroke-width="0.25" stroke-miterlimit="10" points="25,7.1 35.4,17.4 42.4,17.4 25,0 
	7.6,17.4 14.6,17.4 "/>
<polygon fill="#FFFFFF" stroke="#000000" stroke-width="0.25" stroke-miterlimit="10" points="25,7.1 28.3,10.4 35.4,10.4 25,0 
	14.6,10.4 21.7,10.4 "/>
<polygon fill="#FFFFFF" stroke="#000000" stroke-width="0.25" stroke-miterlimit="10" points="25,0 21.7,3.3 28.3,3.3 "/>
<polygon fill="#FFFFFF" stroke="#000000" stroke-width="0.25" stroke-miterlimit="10" points="25,42.9 14.6,32.6 7.6,32.6 25,50 
	42.4,32.6 35.4,32.6 "/>
<polygon fill="#FFFFFF" stroke="#000000" stroke-width="0.25" stroke-miterlimit="10" points="25,42.9 21.7,39.6 14.6,39.6 25,50 
	35.4,39.6 28.3,39.6 "/>
<polygon fill="#FFFFFF" stroke="#000000" stroke-width="0.25" stroke-miterlimit="10" points="25,50 28.3,46.7 21.7,46.7 "/>
<polygon fill="#FFFFFF" stroke="#000000" stroke-width="0.25" stroke-miterlimit="10" points="42.9,25 32.6,35.4 32.6,42.4 50,25 
	32.6,7.6 32.6,14.6 "/>
<polygon fill="#FFFFFF" stroke="#000000" stroke-width="0.25" stroke-miterlimit="10" points="42.9,25 39.6,28.3 39.6,35.4 50,25 
	39.6,14.6 39.6,21.7 "/>
<polygon fill="#FFFFFF" stroke="#000000" stroke-width="0.25" stroke-miterlimit="10" points="50,25 46.7,21.7 46.7,28.3 "/>
<polygon fill="#FFFFFF" stroke="#000000" stroke-width="0.25" stroke-miterlimit="10" points="7.1,25 17.4,14.6 17.4,7.6 0,25 
	17.4,42.4 17.4,35.4 "/>
<polygon fill="#FFFFFF" stroke="#000000" stroke-width="0.25" stroke-miterlimit="10" points="7.1,25 10.4,21.7 10.4,14.6 0,25 
	10.4,35.4 10.4,28.3 "/>
<polygon fill="#FFFFFF" stroke="#000000" stroke-width="0.25" stroke-miterlimit="10" points="0,25 3.3,28.3 3.3,21.7 "/>
<polygon fill="#FFFFFF" stroke="#000000" stroke-width="0.25" stroke-miterlimit="10" points="25,7.1 35.4,17.4 42.4,17.4 25,0 
	7.6,17.4 14.6,17.4 "/>
<polygon fill="#FFFFFF" stroke="#000000" stroke-width="0.25" stroke-miterlimit="10" points="25,7.1 28.3,10.4 35.4,10.4 25,0 
	14.6,10.4 21.7,10.4 "/>
<polygon fill="#FFFFFF" stroke="#000000" stroke-width="0.25" stroke-miterlimit="10" points="25,0 21.7,3.3 28.3,3.3 "/>
<polygon fill="#FFFFFF" stroke="#000000" stroke-width="0.25" stroke-miterlimit="10" points="25,42.9 14.6,32.6 7.6,32.6 25,50 
	42.4,32.6 35.4,32.6 "/>
<polygon fill="#FFFFFF" stroke="#000000" stroke-width="0.25" stroke-miterlimit="10" points="25,42.9 21.7,39.6 14.6,39.6 25,50 
	35.4,39.6 28.3,39.6 "/>
<polygon fill="#FFFFFF" stroke="#000000" stroke-width="0.25" stroke-miterlimit="10" points="25,50 28.3,46.7 21.7,46.7 "/>
<polygon fill="#FFFFFF" stroke="#000000" stroke-width="0.25" stroke-miterlimit="10" points="42.9,25 32.6,35.4 32.6,42.4 50,25 
	32.6,7.6 32.6,14.6 "/>
<polygon fill="#FFFFFF" stroke="#000000" stroke-width="0.25" stroke-miterlimit="10" points="42.9,25 39.6,28.3 39.6,35.4 50,25 
	39.6,14.6 39.6,21.7 "/>
<polygon fill="#FFFFFF" stroke="#000000" stroke-width="0.25" stroke-miterlimit="10" points="50,25 46.7,21.7 46.7,28.3 "/>
<polygon fill="#FFFFFF" stroke="#000000" stroke-width="0.25" stroke-miterlimit="10" points="7.1,25 17.4,14.6 17.4,7.6 0,25 
	17.4,42.4 17.4,35.4 "/>
<polygon fill="#FFFFFF" stroke="#000000" stroke-width="0.25" stroke-miterlimit="10" points="7.1,25 10.4,21.7 10.4,14.6 0,25 
	10.4,35.4 10.4,28.3 "/>
<polygon fill="#FFFFFF" stroke="#000000" stroke-width="0.25" stroke-miterlimit="10" points="0,25 3.3,28.3 3.3,21.7 "/>
<polygon fill="#FFFFFF" stroke="#000000" stroke-width="0.25" stroke-miterlimit="10" points="25,7.1 35.4,17.4 42.4,17.4 25,0 
	7.6,17.4 14.6,17.4 "/>
<polygon fill="#FFFFFF" stroke="#000000" stroke-width="0.25" stroke-miterlimit="10" points="25,7.1 35.4,17.4 42.4,17.4 25,0 
	7.6,17.4 14.6,17.4 "/>
<polygon fill="#FFFFFF" stroke="#000000" stroke-width="0.25" stroke-miterlimit="10" points="25,7.1 28.3,10.4 35.4,10.4 25,0 
	14.6,10.4 21.7,10.4 "/>
<polygon fill="#FFFFFF" stroke="#000000" stroke-width="0.25" stroke-miterlimit="10" points="25,7.1 28.3,10.4 35.4,10.4 25,0 
	14.6,10.4 21.7,10.4 "/>
<polygon fill="#FFFFFF" stroke="#000000" stroke-width="0.25" stroke-miterlimit="10" points="25,0 21.7,3.3 28.3,3.3 "/>
<polygon fill="#FFFFFF" stroke="#000000" stroke-width="0.25" stroke-miterlimit="10" points="25,0 21.7,3.3 28.3,3.3 "/>
<polygon fill="#FFFFFF" stroke="#000000" stroke-width="0.25" stroke-miterlimit="10" points="25,42.9 14.6,32.6 7.6,32.6 25,50 
	42.4,32.6 35.4,32.6 "/>
<polygon fill="#FFFFFF" stroke="#000000" stroke-width="0.25" stroke-miterlimit="10" points="25,42.9 14.6,32.6 7.6,32.6 25,50 
	42.4,32.6 35.4,32.6 "/>
<polygon fill="#FFFFFF" stroke="#000000" stroke-width="0.25" stroke-miterlimit="10" points="25,42.9 21.7,39.6 14.6,39.6 25,50 
	35.4,39.6 28.3,39.6 "/>
<polygon fill="#FFFFFF" stroke="#000000" stroke-width="0.25" stroke-miterlimit="10" points="25,42.9 21.7,39.6 14.6,39.6 25,50 
	35.4,39.6 28.3,39.6 "/>
<polygon fill="#FFFFFF" stroke="#000000" stroke-width="0.25" stroke-miterlimit="10" points="25,50 28.3,46.7 21.7,46.7 "/>
<polygon fill="#FFFFFF" stroke="#000000" stroke-width="0.25" stroke-miterlimit="10" points="25,50 28.3,46.7 21.7,46.7 "/>
<polygon fill="#FFFFFF" stroke="#000000" stroke-width="0.25" stroke-miterlimit="10" points="42.9,25 32.6,35.4 32.6,42.4 50,25 
	32.6,7.6 32.6,14.6 "/>
<polygon fill="#FFFFFF" stroke="#000000" stroke-width="0.25" stroke-miterlimit="10" points="42.9,25 32.6,35.4 32.6,42.4 50,25 
	32.6,7.6 32.6,14.6 "/>
<polygon fill="#FFFFFF" stroke="#000000" stroke-width="0.25" stroke-miterlimit="10" points="42.9,25 39.6,28.3 39.6,35.4 50,25 
	39.6,14.6 39.6,21.7 "/>
<polygon fill="#FFFFFF" stroke="#000000" stroke-width="0.25" stroke-miterlimit="10" points="42.9,25 39.6,28.3 39.6,35.4 50,25 
	39.6,14.6 39.6,21.7 "/>
<polygon fill="#FFFFFF" stroke="#000000" stroke-width="0.25" stroke-miterlimit="10" points="50,25 46.7,21.7 46.7,28.3 "/>
<polygon fill="#FFFFFF" stroke="#000000" stroke-width="0.25" stroke-miterlimit="10" points="50,25 46.7,21.7 46.7,28.3 "/>
<polygon fill="#FFFFFF" stroke="#000000" stroke-width="0.25" stroke-miterlimit="10" points="7.1,25 17.4,14.6 17.4,7.6 0,25 
	17.4,42.4 17.4,35.4 "/>
<polygon fill="#FFFFFF" stroke="#000000" stroke-width="0.25" stroke-miterlimit="10" points="7.1,25 17.4,14.6 17.4,7.6 0,25 
	17.4,42.4 17.4,35.4 "/>
<polygon fill="#FFFFFF" stroke="#000000" stroke-width="0.25" stroke-miterlimit="10" points="7.1,25 10.4,21.7 10.4,14.6 0,25 
	10.4,35.4 10.4,28.3 "/>
<polygon fill="#FFFFFF" stroke="#000000" stroke-width="0.25" stroke-miterlimit="10" points="7.1,25 10.4,21.7 10.4,14.6 0,25 
	10.4,35.4 10.4,28.3 "/>
<polygon fill="#FFFFFF" stroke="#000000" stroke-width="0.25" stroke-miterlimit="10" points="0,25 3.3,28.3 3.3,21.7 "/>
<polygon fill="#FFFFFF" stroke="#000000" stroke-width="0.25" stroke-miterlimit="10" points="0,25 3.3,28.3 3.3,21.7 "/>
<g>
	<polygon fill="#FFFFFF" stroke="#000000" stroke-width="0.25" stroke-miterlimit="10" points="25,16 30.2,21.2 33.7,21.2 25,12.5 
		16.3,21.2 19.8,21.2 	"/>
	<polygon fill="#FFFFFF" stroke="#000000" stroke-width="0.25" stroke-miterlimit="10" points="25,16 26.6,17.7 30.2,17.7 25,12.5 
		19.8,17.7 23.4,17.7 	"/>
	<polygon fill="#FFFFFF" stroke="#000000" stroke-width="0.25" stroke-miterlimit="10" points="25,12.5 23.4,14.1 26.6,14.1 	"/>
	<polygon fill="#FFFFFF" stroke="#000000" stroke-width="0.25" stroke-miterlimit="10" points="25,34 19.8,28.8 16.3,28.8 25,37.5 
		33.7,28.8 30.2,28.8 	"/>
	<polygon fill="#FFFFFF" stroke="#000000" stroke-width="0.25" stroke-miterlimit="10" points="25,34 23.4,32.3 19.8,32.3 25,37.5 
		30.2,32.3 26.6,32.3 	"/>
	<polygon fill="#FFFFFF" stroke="#000000" stroke-width="0.25" stroke-miterlimit="10" points="25,37.5 26.6,35.9 23.4,35.9 	"/>
	<polygon fill="#FFFFFF" stroke="#000000" stroke-width="0.25" stroke-miterlimit="10" points="34,25 28.8,30.2 28.8,33.7 37.5,25 
		28.8,16.3 28.8,19.8 	"/>
	<polygon fill="#FFFFFF" stroke="#000000" stroke-width="0.25" stroke-miterlimit="10" points="34,25 32.3,26.6 32.3,30.2 37.5,25 
		32.3,19.8 32.3,23.4 	"/>
	<polygon fill="#FFFFFF" stroke="#000000" stroke-width="0.25" stroke-miterlimit="10" points="37.5,25 35.9,23.4 35.9,26.6 	"/>
	<polygon fill="#FFFFFF" stroke="#000000" stroke-width="0.25" stroke-miterlimit="10" points="16,25 21.2,19.8 21.2,16.3 12.5,25 
		21.2,33.7 21.2,30.2 	"/>
	<polygon fill="#FFFFFF" stroke="#000000" stroke-width="0.25" stroke-miterlimit="10" points="16,25 17.7,23.4 17.7,19.8 12.5,25 
		17.7,30.2 17.7,26.6 	"/>
	<polygon fill="#FFFFFF" stroke="#000000" stroke-width="0.25" stroke-miterlimit="10" points="12.5,25 14.1,26.6 14.1,23.4 	"/>
</g>
<g>
	<polygon fill="#FFFFFF" stroke="#000000" stroke-width="0.25" stroke-miterlimit="10" points="25,16 30.2,21.2 33.7,21.2 25,12.5 
		16.3,21.2 19.8,21.2 	"/>
	<polygon fill="#FFFFFF" stroke="#000000" stroke-width="0.25" stroke-miterlimit="10" points="25,16 26.6,17.7 30.2,17.7 25,12.5 
		19.8,17.7 23.4,17.7 	"/>
	<polygon fill="#FFFFFF" stroke="#000000" stroke-width="0.25" stroke-miterlimit="10" points="25,12.5 23.4,14.1 26.6,14.1 	"/>
	<polygon fill="#FFFFFF" stroke="#000000" stroke-width="0.25" stroke-miterlimit="10" points="25,34 19.8,28.8 16.3,28.8 25,37.5 
		33.7,28.8 30.2,28.8 	"/>
	<polygon fill="#FFFFFF" stroke="#000000" stroke-width="0.25" stroke-miterlimit="10" points="25,34 23.4,32.3 19.8,32.3 25,37.5 
		30.2,32.3 26.6,32.3 	"/>
	<polygon fill="#FFFFFF" stroke="#000000" stroke-width="0.25" stroke-miterlimit="10" points="25,37.5 26.6,35.9 23.4,35.9 	"/>
	<polygon fill="#FFFFFF" stroke="#000000" stroke-width="0.25" stroke-miterlimit="10" points="34,25 28.8,30.2 28.8,33.7 37.5,25 
		28.8,16.3 28.8,19.8 	"/>
	<polygon fill="#FFFFFF" stroke="#000000" stroke-width="0.25" stroke-miterlimit="10" points="34,25 32.3,26.6 32.3,30.2 37.5,25 
		32.3,19.8 32.3,23.4 	"/>
	<polygon fill="#FFFFFF" stroke="#000000" stroke-width="0.25" stroke-miterlimit="10" points="37.5,25 35.9,23.4 35.9,26.6 	"/>
	<polygon fill="#FFFFFF" stroke="#000000" stroke-width="0.25" stroke-miterlimit="10" points="16,25 21.2,19.8 21.2,16.3 12.5,25 
		21.2,33.7 21.2,30.2 	"/>
	<polygon fill="#FFFFFF" stroke="#000000" stroke-width="0.25" stroke-miterlimit="10" points="16,25 17.7,23.4 17.7,19.8 12.5,25 
		17.7,30.2 17.7,26.6 	"/>
	<polygon fill="#FFFFFF" stroke="#000000" stroke-width="0.25" stroke-miterlimit="10" points="12.5,25 14.1,26.6 14.1,23.4 	"/>
</g>
<polygon fill="#FFFFFF" stroke="#000000" stroke-width="0.25" stroke-miterlimit="10" points="25,16 30.2,21.2 33.7,21.2 25,12.5 
	16.3,21.2 19.8,21.2 "/>
<polygon fill="#FFFFFF" stroke="#000000" stroke-width="0.25" stroke-miterlimit="10" points="25,16 30.2,21.2 33.7,21.2 25,12.5 
	16.3,21.2 19.8,21.2 "/>
<polygon fill="#FFFFFF" stroke="#000000" stroke-width="0.25" stroke-miterlimit="10" points="25,16 26.6,17.7 30.2,17.7 25,12.5 
	19.8,17.7 23.4,17.7 "/>
<polygon fill="#FFFFFF" stroke="#000000" stroke-width="0.25" stroke-miterlimit="10" points="25,16 26.6,17.7 30.2,17.7 25,12.5 
	19.8,17.7 23.4,17.7 "/>
<polygon fill="#FFFFFF" stroke="#000000" stroke-width="0.25" stroke-miterlimit="10" points="25,12.5 23.4,14.1 26.6,14.1 "/>
<polygon fill="#FFFFFF" stroke="#000000" stroke-width="0.25" stroke-miterlimit="10" points="25,12.5 23.4,14.1 26.6,14.1 "/>
<polygon fill="#FFFFFF" stroke="#000000" stroke-width="0.25" stroke-miterlimit="10" points="25,34 19.8,28.8 16.3,28.8 25,37.5 
	33.7,28.8 30.2,28.8 "/>
<polygon fill="#FFFFFF" stroke="#000000" stroke-width="0.25" stroke-miterlimit="10" points="25,34 19.8,28.8 16.3,28.8 25,37.5 
	33.7,28.8 30.2,28.8 "/>
<polygon fill="#FFFFFF" stroke="#000000" stroke-width="0.25" stroke-miterlimit="10" points="25,34 23.4,32.3 19.8,32.3 25,37.5 
	30.2,32.3 26.6,32.3 "/>
<polygon fill="#FFFFFF" stroke="#000000" stroke-width="0.25" stroke-miterlimit="10" points="25,34 23.4,32.3 19.8,32.3 25,37.5 
	30.2,32.3 26.6,32.3 "/>
<polygon fill="#FFFFFF" stroke="#000000" stroke-width="0.25" stroke-miterlimit="10" points="25,37.5 26.6,35.9 23.4,35.9 "/>
<polygon fill="#FFFFFF" stroke="#000000" stroke-width="0.25" stroke-miterlimit="10" points="25,37.5 26.6,35.9 23.4,35.9 "/>
<polygon fill="#FFFFFF" stroke="#000000" stroke-width="0.25" stroke-miterlimit="10" points="34,25 28.8,30.2 28.8,33.7 37.5,25 
	28.8,16.3 28.8,19.8 "/>
<polygon fill="#FFFFFF" stroke="#000000" stroke-width="0.25" stroke-miterlimit="10" points="34,25 28.8,30.2 28.8,33.7 37.5,25 
	28.8,16.3 28.8,19.8 "/>
<polygon fill="#FFFFFF" stroke="#000000" stroke-width="0.25" stroke-miterlimit="10" points="34,25 32.3,26.6 32.3,30.2 37.5,25 
	32.3,19.8 32.3,23.4 "/>
<polygon fill="#FFFFFF" stroke="#000000" stroke-width="0.25" stroke-miterlimit="10" points="34,25 32.3,26.6 32.3,30.2 37.5,25 
	32.3,19.8 32.3,23.4 "/>
<polygon fill="#FFFFFF" stroke="#000000" stroke-width="0.25" stroke-miterlimit="10" points="37.5,25 35.9,23.4 35.9,26.6 "/>
<polygon fill="#FFFFFF" stroke="#000000" stroke-width="0.25" stroke-miterlimit="10" points="37.5,25 35.9,23.4 35.9,26.6 "/>
<polygon fill="#FFFFFF" stroke="#000000" stroke-width="0.25" stroke-miterlimit="10" points="16,25 21.2,19.8 21.2,16.3 12.5,25 
	21.2,33.7 21.2,30.2 "/>
<polygon fill="#FFFFFF" stroke="#000000" stroke-width="0.25" stroke-miterlimit="10" points="16,25 21.2,19.8 21.2,16.3 12.5,25 
	21.2,33.7 21.2,30.2 "/>
<polygon fill="#FFFFFF" stroke="#000000" stroke-width="0.25" stroke-miterlimit="10" points="16,25 17.7,23.4 17.7,19.8 12.5,25 
	17.7,30.2 17.7,26.6 "/>
<polygon fill="#FFFFFF" stroke="#000000" stroke-width="0.25" stroke-miterlimit="10" points="16,25 17.7,23.4 17.7,19.8 12.5,25 
	17.7,30.2 17.7,26.6 "/>
<polygon fill="#FFFFFF" stroke="#000000" stroke-width="0.25" stroke-miterlimit="10" points="12.5,25 14.1,26.6 14.1,23.4 "/>
<polygon fill="#FFFFFF" stroke="#000000" stroke-width="0.25" stroke-miterlimit="10" points="12.5,25 14.1,26.6 14.1,23.4 "/>
</svg>
