<?xml version="1.0" encoding="utf-8"?>
<!-- Generator: Adobe Illustrator 18.1.1, SVG Export Plug-In . SVG Version: 6.00 Build 0)  -->
<svg version="1.1" id="Layer_1" xmlns="http://www.w3.org/2000/svg" xmlns:xlink="http://www.w3.org/1999/xlink" x="0px" y="0px"
	 viewBox="0 0 50 50" enable-background="new 0 0 50 50" xml:space="preserve">
<g>
	<path fill="#FFFFFF" stroke="#000000" stroke-miterlimit="10" d="M48.3,31.2C48.3,14.7,37.9,1.3,25,1.3S1.7,14.7,1.7,31.2
		c0,2.6,0.3,5.2,0.8,7.6h45.2C48.1,36.4,48.3,33.8,48.3,31.2z"/>
</g>
<g>
	<path fill="#FFFFFF" stroke="#000000" stroke-linecap="round" stroke-linejoin="round" stroke-miterlimit="10" d="M12,38.8H6.8v2.8
		c0,1,1.2,1.9,2.6,1.9c1.3,0,2.4-0.7,2.6-1.6c0-0.1,0-0.2,0-0.3V38.8z"/>
	<path fill="#FFFFFF" stroke="#000000" stroke-linecap="round" stroke-linejoin="round" stroke-miterlimit="10" d="M17.2,38.8h-5.1
		v2.8c0,0.1,0,0.2,0,0.3c0.2,0.9,1.3,1.6,2.6,1.6s2.4-0.7,2.6-1.6c0-0.1,0-0.2,0-0.3V38.8z"/>
	<path fill="#FFFFFF" stroke="#000000" stroke-linecap="round" stroke-linejoin="round" stroke-miterlimit="10" d="M12.1,38.8
		L12.1,38.8L12,41.6c0,0.1,0,0.2,0,0.3c0-0.1,0-0.2,0-0.3V38.8z"/>
	<path fill="#FFFFFF" stroke="#000000" stroke-linecap="round" stroke-linejoin="round" stroke-miterlimit="10" d="M22.4,38.8h-5.1
		v2.8c0,0.1,0,0.2,0,0.3c0.2,0.9,1.3,1.6,2.6,1.6c1.3,0,2.4-0.7,2.6-1.6c0-0.1,0-0.2,0-0.3V38.8z"/>
	<path fill="#FFFFFF" stroke="#000000" stroke-linecap="round" stroke-linejoin="round" stroke-miterlimit="10" d="M17.3,38.8
		L17.3,38.8l-0.1,2.8c0,0.1,0,0.2,0,0.3c0-0.1,0-0.2,0-0.3V38.8z"/>
	<path fill="#FFFFFF" stroke="#000000" stroke-linecap="round" stroke-linejoin="round" stroke-miterlimit="10" d="M27.6,38.8h-5.1
		v2.8c0,0.1,0,0.2,0,0.3c0.2,0.9,1.3,1.6,2.6,1.6c1.3,0,2.4-0.7,2.6-1.6c0-0.1,0-0.2,0-0.3V38.8z"/>
	<path fill="#FFFFFF" stroke="#000000" stroke-linecap="round" stroke-linejoin="round" stroke-miterlimit="10" d="M22.4,38.8
		L22.4,38.8l-0.1,2.8c0,0.1,0,0.2,0,0.3c0-0.1,0-0.2,0-0.3V38.8z"/>
	<path fill="#FFFFFF" stroke="#000000" stroke-linecap="round" stroke-linejoin="round" stroke-miterlimit="10" d="M32.7,38.8h-5.1
		v2.8c0,0.1,0,0.2,0,0.3c0.2,0.9,1.3,1.6,2.6,1.6c1.3,0,2.4-0.7,2.6-1.6c0-0.1,0-0.2,0-0.3V38.8z"/>
	<path fill="#FFFFFF" stroke="#000000" stroke-linecap="round" stroke-linejoin="round" stroke-miterlimit="10" d="M27.6,38.8
		L27.6,38.8l-0.1,2.8c0,0.1,0,0.2,0,0.3c0-0.1,0-0.2,0-0.3V38.8z"/>
	<path fill="#FFFFFF" stroke="#000000" stroke-linecap="round" stroke-linejoin="round" stroke-miterlimit="10" d="M37.9,38.8h-5.1
		v2.8c0,0.1,0,0.2,0,0.3c0.2,0.9,1.3,1.6,2.6,1.6h0c1.3,0,2.4-0.7,2.6-1.6c0-0.1,0-0.2,0-0.3V38.8z"/>
	<path fill="#FFFFFF" stroke="#000000" stroke-linecap="round" stroke-linejoin="round" stroke-miterlimit="10" d="M32.8,38.8
		L32.8,38.8l-0.1,2.8c0,0.1,0,0.2,0,0.3c0-0.1,0-0.2,0-0.3V38.8z"/>
	<path fill="#FFFFFF" stroke="#000000" stroke-linecap="round" stroke-linejoin="round" stroke-miterlimit="10" d="M38,41.6
		c0,0.1,0,0.2,0,0.3c0.2,0.9,1.3,1.6,2.6,1.6c1.4,0,2.6-0.9,2.6-1.9v-2.8H38V41.6z"/>
	<path fill="#FFFFFF" stroke="#000000" stroke-linecap="round" stroke-linejoin="round" stroke-miterlimit="10" d="M38,38.8L38,38.8
		l-0.1,2.8c0,0.1,0,0.2,0,0.3c0-0.1,0-0.2,0-0.3V38.8z"/>
</g>
<rect x="12.9" y="25.2" transform="matrix(-0.7071 0.7071 -0.7071 -0.7071 46.0259 36.5064)" width="5.1" height="5.1"/>
<rect x="5.7" y="18" transform="matrix(0.7071 -0.7071 0.7071 0.7071 -12.1235 11.8268)" width="5.1" height="5.1"/>
<rect x="5.7" y="25.2" transform="matrix(-0.7071 -0.7071 0.7071 -0.7071 -5.6242 53.2415)" width="5.1" height="5.1"/>
<rect x="12.9" y="18" transform="matrix(0.7071 -0.7071 0.7071 0.7071 -10.0036 16.9447)" width="5.1" height="5.1"/>
<rect x="9.3" y="21.6" transform="matrix(-0.7071 -0.7071 0.7071 -0.7071 3.1122 49.6224)" width="5.1" height="5.1"/>
<rect x="31.5" y="18" transform="matrix(0.7071 -0.7071 0.7071 0.7071 -4.557 30.094)" width="5.1" height="5.1"/>
<rect x="38.7" y="25.2" transform="matrix(-0.7071 -0.7071 0.7071 -0.7071 50.8315 76.6262)" width="5.1" height="5.1"/>
<rect x="38.7" y="18" transform="matrix(0.7071 0.7071 -0.7071 0.7071 26.6217 -23.175)" width="5.1" height="5.1"/>
<rect x="31.5" y="25.2" transform="matrix(-0.7071 -0.7071 0.7071 -0.7071 38.4759 71.5083)" width="5.1" height="5.1"/>
<rect x="35.1" y="21.6" transform="matrix(0.7071 -0.7071 0.7071 0.7071 -6.0562 33.7122)" width="5.1" height="5.1"/>
<polygon points="25,28.5 17.9,35.6 32.1,35.6 "/>
</svg>
