<?xml version="1.0" encoding="utf-8"?>
<!-- Generator: Adobe Illustrator 18.1.1, SVG Export Plug-In . SVG Version: 6.00 Build 0)  -->
<svg version="1.1" id="Layer_1" xmlns="http://www.w3.org/2000/svg" xmlns:xlink="http://www.w3.org/1999/xlink" x="0px" y="0px"
	 viewBox="0 0 50 50" enable-background="new 0 0 50 50" xml:space="preserve">
<g>
	<path d="M7.8-0.5c-1.7,0-3.3,0-5,0c7,16.8-7,33.7,0,50.5c1.7,0,3.3,0,5,0C0.8,33.2,14.8,16.3,7.8-0.5z"/>
</g>
<g>
	<path d="M47.5-0.5c-1.7,0-3.3,0-5,0c7,16.8-7,33.7,0,50.5c1.7,0,3.3,0,5,0C40.5,33.2,54.5,16.3,47.5-0.5z"/>
</g>
<g>
	<path d="M17.7-0.5c-1.7,0-3.3,0-5,0c7,16.8-7,33.7,0,50.5c1.7,0,3.3,0,5,0C10.7,33.2,24.7,16.3,17.7-0.5z"/>
</g>
<g>
	<path d="M27.6-0.5c-1.7,0-3.3,0-5,0c7,16.8-7,33.7,0,50.5c1.7,0,3.3,0,5,0C20.6,33.2,34.6,16.3,27.6-0.5z"/>
</g>
<g>
	<path d="M37.6-0.5c-1.7,0-3.3,0-5,0c7,16.8-7,33.7,0,50.5c1.7,0,3.3,0,5,0C30.6,33.2,44.6,16.3,37.6-0.5z"/>
</g>
</svg>
