<?xml version="1.0" encoding="utf-8"?>
<!-- Generator: Adobe Illustrator 18.1.1, SVG Export Plug-In . SVG Version: 6.00 Build 0)  -->
<svg version="1.1" id="Layer_1" xmlns="http://www.w3.org/2000/svg" xmlns:xlink="http://www.w3.org/1999/xlink" x="0px" y="0px"
	 viewBox="0 0 50 50" enable-background="new 0 0 50 50" xml:space="preserve">
<rect x="5" y="31.8" fill="none" width="4" height="4"/>
<rect x="5" y="40.8" fill="none" width="4" height="4"/>
<rect x="14" y="40.8" fill="none" width="4" height="4"/>
<rect x="23" y="40.8" fill="none" width="4" height="4"/>
<rect x="5" y="22.8" fill="none" width="4" height="4"/>
<rect x="5" y="13.8" fill="none" width="4" height="4"/>
<rect x="32" y="40.8" fill="none" width="4" height="4"/>
<rect x="41" y="22.8" fill="none" width="4" height="4"/>
<rect x="23" y="22.8" fill="none" width="4" height="4"/>
<rect x="41" y="13.8" fill="none" width="4" height="4"/>
<rect x="41" y="40.8" fill="none" width="4" height="4"/>
<rect x="41" y="31.8" fill="none" width="4" height="4"/>
<rect x="41" y="4.8" fill="none" width="4" height="4"/>
<rect x="32" y="22.8" fill="none" width="4" height="4"/>
<rect x="32" y="13.8" fill="none" width="4" height="4"/>
<rect x="14" y="22.8" fill="none" width="4" height="4"/>
<rect x="32" y="31.8" fill="none" width="4" height="4"/>
<rect x="23" y="31.8" fill="none" width="4" height="4"/>
<rect x="14" y="31.8" fill="none" width="4" height="4"/>
<rect x="14" y="13.8" fill="none" width="4" height="4"/>
<rect x="23" y="4.8" fill="none" width="4" height="4"/>
<rect x="32" y="4.8" fill="none" width="4" height="4"/>
<rect x="14" y="4.8" fill="none" width="4" height="4"/>
<rect x="23" y="13.8" fill="none" width="4" height="4"/>
<rect x="5" y="4.8" fill="none" width="4" height="4"/>
<rect y="49.8" width="5" height="0.2"/>
<rect y="4.8" width="5" height="4"/>
<rect y="40.8" width="5" height="4"/>
<rect y="22.8" width="5" height="4"/>
<rect y="31.8" width="5" height="4"/>
<rect y="13.8" width="5" height="4"/>
<rect x="9" y="13.8" width="5" height="4"/>
<rect x="9" y="4.8" width="5" height="4"/>
<rect x="9" y="40.8" width="5" height="4"/>
<rect x="9" y="49.8" width="5" height="0.2"/>
<rect x="9" y="31.8" width="5" height="4"/>
<rect x="9" y="22.8" width="5" height="4"/>
<rect x="18" y="13.8" width="5" height="4"/>
<rect x="18" y="31.8" width="5" height="4"/>
<rect x="18" y="49.8" width="5" height="0.2"/>
<rect x="18" y="40.8" width="5" height="4"/>
<rect x="18" y="4.8" width="5" height="4"/>
<rect x="18" y="22.8" width="5" height="4"/>
<rect x="27" y="40.8" width="5" height="4"/>
<rect x="27" y="49.8" width="5" height="0.2"/>
<rect x="27" y="13.8" width="5" height="4"/>
<rect x="27" y="22.8" width="5" height="4"/>
<rect x="27" y="4.8" width="5" height="4"/>
<rect x="27" y="31.8" width="5" height="4"/>
<rect x="36" y="31.8" width="5" height="4"/>
<rect x="36" y="22.8" width="5" height="4"/>
<rect x="36" y="4.8" width="5" height="4"/>
<rect x="36" y="13.8" width="5" height="4"/>
<rect x="36" y="49.8" width="5" height="0.2"/>
<rect x="36" y="40.8" width="5" height="4"/>
<rect x="45" y="13.8" width="5" height="4"/>
<rect x="45" y="31.8" width="5" height="4"/>
<rect x="45" y="49.8" width="5" height="0.2"/>
<rect x="45" y="22.8" width="5" height="4"/>
<rect x="45" y="40.8" width="5" height="4"/>
<rect x="45" y="4.8" width="5" height="4"/>
<rect x="-0.2" y="44.8" width="0.2" height="5"/>
<rect x="5" y="44.8" width="4" height="5"/>
<rect x="32" y="44.8" width="4" height="5"/>
<rect x="50" y="44.8" width="0.2" height="5"/>
<rect x="23" y="44.8" width="4" height="5"/>
<rect x="14" y="44.8" width="4" height="5"/>
<rect x="41" y="44.8" width="4" height="5"/>
<rect y="44.8" width="5" height="5"/>
<rect x="9" y="44.8" width="5" height="5"/>
<rect x="18" y="44.8" width="5" height="5"/>
<rect x="27" y="44.8" width="5" height="5"/>
<rect x="36" y="44.8" width="5" height="5"/>
<rect x="45" y="44.8" width="5" height="5"/>
<rect x="41" y="35.8" width="4" height="5"/>
<rect x="5" y="35.8" width="4" height="5"/>
<rect x="32" y="35.8" width="4" height="5"/>
<rect x="23" y="35.8" width="4" height="5"/>
<rect x="-0.2" y="35.8" width="0.2" height="5"/>
<rect x="50" y="35.8" width="0.2" height="5"/>
<rect x="14" y="35.8" width="4" height="5"/>
<rect y="35.8" width="5" height="5"/>
<rect x="9" y="35.8" width="5" height="5"/>
<rect x="18" y="35.8" width="5" height="5"/>
<rect x="27" y="35.8" width="5" height="5"/>
<rect x="36" y="35.8" width="5" height="5"/>
<rect x="45" y="35.8" width="5" height="5"/>
<rect x="32" y="26.8" width="4" height="5"/>
<rect x="41" y="26.8" width="4" height="5"/>
<rect x="-0.2" y="26.8" width="0.2" height="5"/>
<rect x="50" y="26.8" width="0.2" height="5"/>
<rect x="23" y="26.8" width="4" height="5"/>
<rect x="5" y="26.8" width="4" height="5"/>
<rect x="14" y="26.8" width="4" height="5"/>
<rect y="26.8" width="5" height="5"/>
<rect x="9" y="26.8" width="5" height="5"/>
<rect x="18" y="26.8" width="5" height="5"/>
<rect x="27" y="26.8" width="5" height="5"/>
<rect x="36" y="26.8" width="5" height="5"/>
<rect x="45" y="26.8" width="5" height="5"/>
<rect x="32" y="17.8" width="4" height="5"/>
<rect x="23" y="17.8" width="4" height="5"/>
<rect x="41" y="17.8" width="4" height="5"/>
<rect x="-0.2" y="17.8" width="0.2" height="5"/>
<rect x="50" y="17.8" width="0.2" height="5"/>
<rect x="5" y="17.8" width="4" height="5"/>
<rect x="14" y="17.8" width="4" height="5"/>
<rect y="17.8" width="5" height="5"/>
<rect x="9" y="17.8" width="5" height="5"/>
<rect x="18" y="17.8" width="5" height="5"/>
<rect x="27" y="17.8" width="5" height="5"/>
<rect x="36" y="17.8" width="5" height="5"/>
<rect x="45" y="17.8" width="5" height="5"/>
<rect x="14" y="8.8" width="4" height="5"/>
<rect x="23" y="8.8" width="4" height="5"/>
<rect x="32" y="8.8" width="4" height="5"/>
<rect x="-0.2" y="8.8" width="0.2" height="5"/>
<rect x="41" y="8.8" width="4" height="5"/>
<rect x="5" y="8.8" width="4" height="5"/>
<rect x="50" y="8.8" width="0.2" height="5"/>
<rect y="8.8" width="5" height="5"/>
<rect x="9" y="8.8" width="5" height="5"/>
<rect x="18" y="8.8" width="5" height="5"/>
<rect x="27" y="8.8" width="5" height="5"/>
<rect x="36" y="8.8" width="5" height="5"/>
<rect x="45" y="8.8" width="5" height="5"/>
<rect x="50" y="-0.2" width="0.2" height="5"/>
<rect x="23" y="-0.2" width="4" height="5"/>
<rect x="5" y="-0.2" width="4" height="5"/>
<rect x="41" y="-0.2" width="4" height="5"/>
<rect x="-0.2" y="-0.2" width="0.2" height="5"/>
<rect x="32" y="-0.2" width="4" height="5"/>
<rect x="14" y="-0.2" width="4" height="5"/>
<rect y="-0.2" width="5" height="5"/>
<rect x="9" y="-0.2" width="5" height="5"/>
<rect x="18" y="-0.2" width="5" height="5"/>
<rect x="27" y="-0.2" width="5" height="5"/>
<rect x="36" y="-0.2" width="5" height="5"/>
<rect x="45" y="-0.2" width="5" height="5"/>
</svg>
