<?xml version="1.0" encoding="utf-8"?>
<!-- Generator: Adobe Illustrator 18.1.1, SVG Export Plug-In . SVG Version: 6.00 Build 0)  -->
<svg version="1.1" id="Layer_1" xmlns="http://www.w3.org/2000/svg" xmlns:xlink="http://www.w3.org/1999/xlink" x="0px" y="0px"
	 viewBox="0 0 50 50" enable-background="new 0 0 50 50" xml:space="preserve">
<rect x="5" width="5" height="5"/>
<rect x="5" y="10" width="5" height="5"/>
<rect y="5" width="5" height="5"/>
<rect x="10" y="5" width="5" height="5"/>
<rect x="40" width="5" height="5"/>
<rect x="40" y="10" width="5" height="5"/>
<rect x="35" y="5" width="5" height="5"/>
<rect x="45" y="5" width="5" height="5"/>
<rect x="5" y="35" width="5" height="5"/>
<rect x="5" y="45" width="5" height="5"/>
<rect y="40" width="5" height="5"/>
<rect x="10" y="40" width="5" height="5"/>
<rect x="40" y="35" width="5" height="5"/>
<rect x="40" y="45" width="5" height="5"/>
<rect x="35" y="40" width="5" height="5"/>
<rect x="45" y="40" width="5" height="5"/>
<rect x="22.5" y="17.5" width="5" height="5"/>
<rect x="22.5" y="27.5" width="5" height="5"/>
<rect x="17.5" y="22.5" width="5" height="5"/>
<rect x="27.5" y="22.5" width="5" height="5"/>
</svg>
