<?xml version="1.0" encoding="utf-8"?>
<!-- Generator: Adobe Illustrator 18.1.1, SVG Export Plug-In . SVG Version: 6.00 Build 0)  -->
<svg version="1.1" id="Layer_1" xmlns="http://www.w3.org/2000/svg" xmlns:xlink="http://www.w3.org/1999/xlink" x="0px" y="0px"
	 viewBox="0 0 50 50" enable-background="new 0 0 50 50" xml:space="preserve">
<path fill="#FFFFFF" stroke="#000000" stroke-width="0.25" stroke-miterlimit="10" d="M0,0v50h50V0H0z M45,45H29.9L25,49.9L20.1,45
	H5V29.9L0.1,25L5,20.1V5h15.1L25,0.1L29.9,5H45v15.1l4.9,4.9L45,29.9V45z"/>
<polygon fill="#FFFFFF" stroke="#000000" stroke-width="0.25" stroke-miterlimit="10" points="45,20.1 45,29.9 49.9,25 "/>
<polygon fill="#FFFFFF" stroke="#000000" stroke-width="0.25" stroke-miterlimit="10" points="0.1,25 5,29.9 5,20.1 "/>
<polygon fill="#FFFFFF" stroke="#000000" stroke-width="0.25" stroke-miterlimit="10" points="25,0.1 20.1,5 29.9,5 "/>
<polygon fill="#FFFFFF" stroke="#000000" stroke-width="0.25" stroke-miterlimit="10" points="25,49.9 29.9,45 20.1,45 "/>
<polygon fill="#FFFFFF" stroke="#000000" stroke-width="0.25" stroke-miterlimit="10" points="10,10 15.1,10 20.1,5 5,5 5,20.1 
	10,15.1 "/>
<polygon fill="#FFFFFF" stroke="#000000" stroke-width="0.25" stroke-miterlimit="10" points="10,40 10,34.9 5,29.9 5,45 20.1,45 
	15.1,40 "/>
<polygon fill="#FFFFFF" stroke="#000000" stroke-width="0.25" stroke-miterlimit="10" points="40,10 40,15.1 45,20.1 45,5 29.9,5 
	34.9,10 "/>
<polygon fill="#FFFFFF" stroke="#000000" stroke-width="0.25" stroke-miterlimit="10" points="40,40 34.9,40 29.9,45 45,45 45,29.9 
	40,34.9 "/>
<polygon fill="#FFFFFF" stroke="#000000" stroke-width="0.25" stroke-miterlimit="10" points="10,15.1 5,20.1 5,29.9 10,34.9 "/>
<polygon fill="#FFFFFF" stroke="#000000" stroke-width="0.25" stroke-miterlimit="10" points="34.9,10 29.9,5 20.1,5 15.1,10 "/>
<polygon fill="#FFFFFF" stroke="#000000" stroke-width="0.25" stroke-miterlimit="10" points="15.1,40 20.1,45 29.9,45 34.9,40 "/>
<polygon fill="#FFFFFF" stroke="#000000" stroke-width="0.25" stroke-miterlimit="10" points="40,15.1 40,34.9 45,29.9 45,20.1 "/>
<polygon fill="#FFFFFF" stroke="#000000" stroke-width="0.25" stroke-miterlimit="10" points="40,40 40,34.9 34.9,40 "/>
<polygon fill="#FFFFFF" stroke="#000000" stroke-width="0.25" stroke-miterlimit="10" points="34.9,10 40,15.1 40,10 "/>
<polygon fill="#FFFFFF" stroke="#000000" stroke-width="0.25" stroke-miterlimit="10" points="10,40 15.1,40 10,34.9 "/>
<polygon fill="#FFFFFF" stroke="#000000" stroke-width="0.25" stroke-miterlimit="10" points="10,10 10,15.1 15.1,10 "/>
<polygon fill="#FFFFFF" stroke="#000000" stroke-width="0.25" stroke-miterlimit="10" points="15.1,10 10,15.1 10,34.9 15.1,40 
	34.9,40 40,34.9 40,15.1 34.9,10 "/>
</svg>
