<?xml version="1.0" encoding="utf-8"?>
<!-- Generator: Adobe Illustrator 19.1.0, SVG Export Plug-In . SVG Version: 6.00 Build 0)  -->
<svg version="1.1" id="Layer_1" xmlns="http://www.w3.org/2000/svg" xmlns:xlink="http://www.w3.org/1999/xlink" x="0px" y="0px"
	 viewBox="0 0 50 50" style="enable-background:new 0 0 50 50;" xml:space="preserve">
<style type="text/css">
	.st0{fill:#FFFFFF;}
</style>
<circle cx="25" cy="25" r="18.2"/>
<path d="M25,50c-6.4,0-12.8-2.4-17.7-7.3c-9.8-9.8-9.8-25.6,0-35.4s25.6-9.8,35.4,0s9.8,25.6,0,35.4C37.8,47.6,31.4,50,25,50z
	 M25,2.8C19.3,2.8,13.6,5,9.3,9.3C0.7,18,0.7,32,9.3,40.7c8.6,8.6,22.7,8.6,31.4,0c8.6-8.6,8.6-22.7,0-31.4C36.4,5,30.7,2.8,25,2.8z
	"/>
</svg>
