<?xml version="1.0" encoding="utf-8"?>
<!-- Generator: Adobe Illustrator 19.1.0, SVG Export Plug-In . SVG Version: 6.00 Build 0)  -->
<svg version="1.1" id="Layer_1" xmlns="http://www.w3.org/2000/svg" xmlns:xlink="http://www.w3.org/1999/xlink" x="0px" y="0px"
	 viewBox="0 0 50 50" style="enable-background:new 0 0 50 50;" xml:space="preserve">
<polygon points="12.5,37.5 0,50 50,50 37.5,37.5 "/>
<polygon points="37.5,12.5 37.5,37.5 50,50 50,0 "/>
<polygon points="12.5,12.5 0,0 0,50 12.5,37.5 "/>
<polygon points="37.5,12.5 50,0 0,0 12.5,12.5 "/>
<rect x="12.5" y="12.5" width="25" height="25"/>
<g>
	<polygon points="0,50 50,50 25,25 	"/>
	<polygon points="25,25 50,50 50,0 	"/>
	<polygon points="0,0 0,50 25,25 	"/>
	<polygon points="50,0 0,0 25,25 	"/>
</g>
<rect x="12.5" y="12.5" width="25" height="25"/>
</svg>
