<?xml version="1.0" encoding="utf-8"?>
<!-- Generator: Adobe Illustrator 19.1.0, SVG Export Plug-In . SVG Version: 6.00 Build 0)  -->
<svg version="1.1" id="Layer_1" xmlns="http://www.w3.org/2000/svg" xmlns:xlink="http://www.w3.org/1999/xlink" x="0px" y="0px"
	 viewBox="0 0 50 50" style="enable-background:new 0 0 50 50;" xml:space="preserve">
<polygon points="30.2,37.5 25,42.7 19.8,37.5 12.5,37.5 0,50 50,50 37.5,37.5 "/>
<polygon points="37.5,12.5 37.5,19.8 42.7,25 37.5,30.2 37.5,37.5 50,50 50,0 "/>
<polygon points="12.5,30.2 7.3,25 12.5,19.8 12.5,12.5 0,0 0,50 12.5,37.5 "/>
<polygon points="19.8,12.5 25,7.3 30.2,12.5 37.5,12.5 50,0 0,0 12.5,12.5 "/>
<polygon points="30.2,37.5 37.5,37.5 33.8,33.8 "/>
<polygon points="12.5,37.5 19.8,37.5 16.2,33.8 "/>
<polygon points="37.5,37.5 37.5,30.2 33.8,33.8 "/>
<polygon points="37.5,19.8 37.5,12.5 33.8,16.2 "/>
<polygon points="12.5,30.2 12.5,37.5 16.2,33.8 "/>
<polygon points="12.5,12.5 12.5,19.8 16.2,16.2 "/>
<polygon points="19.8,12.5 12.5,12.5 16.2,16.2 "/>
<polygon points="33.8,16.2 37.5,12.5 30.2,12.5 "/>
<polygon points="25,42.7 30.2,37.5 25,37.5 "/>
<polygon points="37.5,30.2 42.7,25 37.5,25 "/>
<polygon points="25,25 25,37.5 30.2,37.5 33.8,33.8 "/>
<polygon points="25,25 33.8,33.8 37.5,30.2 37.5,25 "/>
<polygon points="42.7,25 37.5,19.8 37.5,25 "/>
<polygon points="30.2,12.5 25,7.3 25,12.5 "/>
<polygon points="25,25 37.5,25 37.5,19.8 33.8,16.2 "/>
<polygon points="25,25 33.8,16.2 30.2,12.5 25,12.5 "/>
<polygon points="19.8,37.5 25,42.7 25,37.5 "/>
<polygon points="7.3,25 12.5,30.2 12.5,25 "/>
<polygon points="25,25 16.2,33.8 19.8,37.5 25,37.5 "/>
<polygon points="25,25 12.5,25 12.5,30.2 16.2,33.8 "/>
<polygon points="12.5,19.8 7.3,25 12.5,25 "/>
<polygon points="25,7.3 19.8,12.5 25,12.5 "/>
<polygon points="25,25 16.2,16.2 12.5,19.8 12.5,25 "/>
<polygon points="25,25 25,12.5 19.8,12.5 16.2,16.2 "/>
</svg>
